<?xml version="1.0" encoding="UTF-8" standalone="no"?><!DOCTYPE svg PUBLIC "-//W3C//DTD SVG 1.1//EN" "http://www.w3.org/Graphics/SVG/1.1/DTD/svg11.dtd"><svg width="100%" height="100%" viewBox="0 0 12 12" version="1.1" xmlns="http://www.w3.org/2000/svg" xmlns:xlink="http://www.w3.org/1999/xlink" xml:space="preserve" xmlns:serif="http://www.serif.com/" style="fill-rule:evenodd;clip-rule:evenodd;stroke-linejoin:round;stroke-miterlimit:2;"><path d="M8.8,8.291l-5.091,-5.091l-0.509,0.509l5.091,5.091l0.509,-0.509Z" style="fill:#f4f4f4;"/><path d="M3.2,8.291l5.091,-5.091l0.509,0.509l-5.091,5.091l-0.509,-0.509Z" style="fill:#f4f4f4;"/><path d="M6,-0c3.311,-0 6,2.689 6,6c0,3.311 -2.689,6 -6,6c-3.311,0 -6,-2.689 -6,-6c-0,-3.311 2.689,-6 6,-6Zm0,0.72c2.914,-0 5.28,2.366 5.28,5.28c-0,2.914 -2.366,5.28 -5.28,5.28c-2.914,-0 -5.28,-2.366 -5.28,-5.28c-0,-2.914 2.366,-5.28 5.28,-5.28Z" style="fill:#f4f4f4;"/></svg>